<?xml version="1.0" standalone="no"?>
<!DOCTYPE svg PUBLIC "-//W3C//DTD SVG 20010904//EN"
 "http://www.w3.org/TR/2001/REC-SVG-20010904/DTD/svg10.dtd">
<svg version="1.0" xmlns="http://www.w3.org/2000/svg"
 width="425.000000pt" height="425.000000pt" viewBox="0 0 425.000000 425.000000"
 preserveAspectRatio="xMidYMid meet">
<metadata>
Created by potrace 1.11, written by Peter Selinger 2001-2013
</metadata>
<g transform="translate(0.000000,425.000000) scale(0.100000,-0.100000)"
fill="#000000" stroke="none">
<path d="M523 4053 c-63 -68 -76 -114 -45 -160 9 -15 22 -41 27 -57 12 -37 63
-65 118 -66 20 0 37 -4 37 -9 0 -5 9 -13 20 -16 11 -3 20 -11 20 -17 0 -6 24
-50 54 -97 73 -117 98 -169 136 -286 18 -58 49 -126 74 -165 43 -65 264 -334
382 -463 34 -38 75 -96 92 -130 17 -34 40 -73 53 -86 20 -21 22 -35 24 -135 1
-82 6 -122 18 -146 21 -41 21 -49 0 -91 -25 -51 -29 -197 -8 -314 9 -53 14
-106 11 -119 -3 -13 -1 -175 4 -359 7 -266 15 -370 34 -504 14 -92 28 -202 31
-243 4 -41 8 -88 10 -105 2 -16 4 -38 4 -47 1 -15 15 -18 104 -20 l102 -3 -1
-60 c-1 -33 -3 -84 -5 -113 -4 -47 -1 -56 21 -74 22 -18 37 -19 155 -17 71 2
194 -3 273 -10 112 -10 146 -10 157 -1 18 15 20 50 4 50 -18 0 -187 67 -257
101 -34 17 -72 45 -84 61 -29 41 -46 159 -46 310 0 68 -1 128 -3 133 -2 6 1
44 5 86 5 52 4 83 -5 102 -10 22 -9 31 6 53 14 21 15 31 6 51 -17 37 -13 94 9
137 14 29 18 50 13 81 -5 41 -4 43 27 54 44 15 48 14 55 -9 3 -11 13 -20 21
-20 17 0 18 38 4 126 -9 54 -7 70 14 135 13 41 29 93 35 116 18 67 69 91 223
108 68 7 131 16 141 20 10 4 17 3 17 -4 0 -6 17 -27 38 -47 20 -21 53 -67 72
-103 27 -51 42 -67 65 -73 69 -20 162 13 244 87 20 18 63 47 95 64 50 26 62
38 73 71 10 29 11 45 3 59 -7 14 -6 28 5 50 8 17 22 45 30 62 14 28 13 36 -5
91 -13 41 -18 73 -14 99 5 27 2 46 -10 63 -23 35 -20 45 17 80 19 17 36 36 38
41 5 12 143 95 157 95 6 0 12 -6 14 -12 4 -10 19 -6 56 11 66 31 89 55 73 75
-10 12 -8 20 13 43 43 45 76 122 76 173 0 94 -90 190 -185 198 -71 6 -100 -2
-132 -38 -14 -17 -31 -30 -36 -30 -10 0 -56 -51 -109 -120 -30 -40 -39 -45
-78 -48 -43 -3 -46 -1 -65 35 -25 48 -288 308 -336 333 -20 11 -52 36 -70 57
-40 46 -368 367 -414 406 -18 15 -38 27 -45 27 -12 0 -149 115 -163 138 -4 6
-16 12 -25 12 -25 0 -134 -90 -128 -106 3 -7 1 -16 -4 -19 -29 -18 9 -75 60
-90 14 -4 40 -16 58 -27 l33 -20 -25 -32 c-32 -42 -42 -97 -26 -137 14 -34 61
-61 135 -80 43 -11 64 -28 192 -158 92 -93 143 -153 143 -166 0 -11 16 -38 35
-58 19 -20 35 -44 35 -53 0 -26 -20 -54 -38 -54 -10 0 -23 -5 -29 -11 -8 -8
-17 -7 -32 3 -18 11 -27 9 -66 -12 l-46 -25 -26 33 c-24 32 -29 33 -69 27 -24
-3 -45 -2 -48 4 -4 5 -31 17 -61 26 -49 14 -62 24 -108 81 -108 136 -167 203
-199 224 -37 25 -70 60 -204 212 -50 56 -95 114 -99 128 -8 25 -67 98 -180
221 -33 36 -90 99 -126 140 l-66 74 -99 26 c-149 39 -192 49 -218 49 -13 0
-26 6 -29 14 -3 8 -25 20 -49 27 -29 8 -58 27 -90 60 -25 27 -51 49 -57 49 -7
0 -24 -12 -38 -27z"/>
</g>
</svg>
